<?xml version="1.0" encoding="UTF-8"?>
<svg width="551px" height="101px" viewBox="0 0 551 101" version="1.1" xmlns="http://www.w3.org/2000/svg" xmlns:xlink="http://www.w3.org/1999/xlink">
    <!-- Generator: Sketch 64 (93537) - https://sketch.com -->
    <title>Logo_on_black</title>
    <desc>Created with Sketch.</desc>
    <g id="Logo_on_black" stroke="none" stroke-width="1" fill="none" fill-rule="evenodd">
        <path d="M16.1677738,0.0501827567 C16.9884225,-0.0737237266 17.8183818,0.205485426 18.4002055,0.801201965 C18.9820292,1.3969185 19.2453617,2.23710695 19.1085197,3.06114816 L19.1085197,27.1488714 L69.2008868,27.1488714 C74.2755795,27.0538366 79.3431015,27.5761732 84.293393,28.7045368 C87.9092506,29.4868546 91.2802102,31.1476394 94.1124938,33.5421545 C96.6144594,35.8223325 98.4427255,38.7535969 99.3958679,42.0130039 C100.540538,46.0582436 101.07814,50.253042 100.990849,54.4583275 L100.990849,73.818835 C101.07814,78.0241206 100.540538,82.218919 99.3958679,86.2641587 C98.4427255,89.5235656 96.6144594,92.4548301 94.1124938,94.735008 C91.2849069,97.124688 87.9100496,98.7666956 84.293393,99.5124064 C79.3353563,100.585009 74.2712603,101.080052 69.2008868,100.987779 L31.798586,100.987779 C26.7049007,101.086086 21.6170101,100.591007 16.6362994,99.5124064 C13.0380616,98.7339739 9.68807907,97.0682622 6.886979,94.6647522 C4.38464886,92.3867077 2.55914375,89.4543372 1.61357359,86.1939028 C0.46480125,82.1493292 -0.0761757792,77.9544095 0.00862411432,73.7485792 L0.00862411432,3.0109654 C0.00862411432,1.00365513 1.03207016,0 3.07896224,0 L16.1677738,0.0501827567 Z M19.1085197,43.2073535 L19.1085197,69.9748359 C19.0592868,72.3680701 19.2833897,74.7590729 19.7764179,77.1007873 C20.1208229,78.7948434 20.932777,80.3567642 22.119046,81.6071989 C23.366172,82.8063446 24.913104,83.6423151 26.594961,84.0260077 C28.9133586,84.5748598 31.2917056,84.8244328 33.6726885,84.7687125 L67.3367529,84.7687125 C69.7606877,84.8281279 72.1823516,84.5785786 74.5440726,84.0260077 C76.2250524,83.6399549 77.7713928,82.8043041 79.0199876,81.6071989 C80.2062566,80.3567642 81.0182108,78.7948434 81.3626157,77.1007873 C81.8506797,74.7583126 82.074729,72.367882 82.030514,69.9748359 L82.030514,58.0213032 C82.0649037,55.6618491 81.8409189,53.3057651 81.3626157,50.9957173 C81.0248908,49.2786673 80.2129207,47.6923647 79.0199876,46.4190499 C77.7687932,45.2255637 76.2234935,44.3904753 74.5440726,44.000241 C72.1815407,43.4525836 69.7604932,43.2030978 67.3367529,43.2575362 L19.1085197,43.2073535 Z" id="Shape" fill="#FFFFFF" fill-rule="nonzero"></path>
        <path d="M186.563808,27.0200288 C187.229909,26.928216 187.900343,27.1553568 188.374782,27.6335808 C188.849221,28.1118049 189.072721,28.7857298 188.978499,29.4539848 L188.978499,40.7688627 C189.073574,41.4364499 188.849945,42.1100071 188.374902,42.5868619 C187.899858,43.0637167 187.228859,43.2881985 186.563808,43.192761 L150.844408,43.192761 C148.451488,43.1419688 146.061643,43.392001 143.730587,43.9370285 C142.042601,44.3280839 140.489421,45.1649294 139.231846,46.3609268 C138.032829,47.6369208 137.216718,49.2265612 136.877271,50.947224 C136.400456,53.2625919 136.178695,55.6235669 136.215986,57.9875925 L136.215986,98.0070585 C136.331167,98.8239719 136.057038,99.6477125 135.475852,100.231114 C134.894666,100.814516 134.074054,101.089691 133.260244,100.974071 L120.094664,100.974071 C118.037333,100.974071 117.008668,99.9850668 117.008668,98.0070585 L117.008668,54.3869469 C116.923436,50.1722671 117.467172,45.9685208 118.621802,41.915437 C119.576042,38.6498776 121.410242,35.712321 123.9221,33.4267642 C126.752237,31.0369683 130.118499,29.3733067 133.731158,28.5789676 C138.725883,27.4410276 143.840013,26.9175325 148.960748,27.0200288 L186.563808,27.0200288 Z" id="Path" fill="#FFFFFF" fill-rule="nonzero"></path>
        <path d="M258.217289,27.0109978 C263.289364,26.9157829 268.354272,27.4391096 273.30201,28.569612 C276.916003,29.3534126 280.285224,31.0173453 283.116046,33.4163991 C285.616721,35.700899 287.444044,38.6377194 288.396695,41.9033044 C289.540775,45.9562116 290.078099,50.158961 289.990853,54.3722173 L289.990853,90.2102866 C290.029326,91.9954133 289.872279,93.7793664 289.522569,95.5296857 C289.297232,96.7575968 288.746311,97.9008986 287.928411,98.8379699 C287.112614,99.6759308 286.07488,100.258942 284.939365,100.517251 C283.363442,100.870531 281.750823,101.029232 280.136963,100.989863 L216.559943,100.989863 C213.255655,101.0688 209.956412,100.686421 206.755871,99.853583 C204.398245,99.2413153 202.221327,98.065193 200.409128,96.4246319 C198.751647,94.8030208 197.572119,92.7493559 197.001615,90.4918427 C196.288246,87.6739417 195.953134,84.7721042 196.005267,81.8641593 L196.005267,75.3984246 C195.968688,72.8686196 196.304465,70.347351 197.001615,67.9170768 C197.631106,65.7837058 198.806385,63.8553595 200.409128,62.3261771 C202.221327,60.6856161 204.398245,59.5094938 206.755871,58.8972261 C209.955943,58.060999 213.255193,57.6752361 216.559943,57.7508905 L270.90081,57.7508905 L270.90081,55.1867189 C270.9389,53.3239061 270.714128,51.4651015 270.233256,49.6662083 C269.848719,48.2331525 269.059427,46.9439393 267.96158,45.9557011 C266.683583,44.9081193 265.172116,44.1902664 263.557718,43.8641415 C261.189028,43.3684601 258.772723,43.142473 256.354116,43.190418 L200.558581,43.190418 C199.897245,43.2858356 199.229995,43.0614005 198.757605,42.584645 C198.285216,42.1078895 198.062836,41.4344726 198.15738,40.7670244 L198.15738,29.4645581 C198.063685,28.7964422 198.285936,28.1226577 198.757725,27.6445332 C199.229513,27.1664087 199.896201,26.9393153 200.558581,27.031109 L258.217289,27.0109978 Z M267.034976,86.1679454 C268.128325,86.2829065 269.217688,85.9164294 270.024023,85.1623879 C270.706246,84.1063505 271.011955,82.8473887 270.890846,81.5926588 L270.890846,69.686858 L222.069752,69.686858 C219.306545,69.686858 217.370307,70.2499702 216.261039,71.3761946 C215.065699,72.7184849 214.461606,74.4930782 214.587173,76.2933708 L214.587173,79.1189874 C214.587173,81.5524365 215.145128,83.3222177 216.261039,84.4484421 C217.376949,85.5746665 219.309866,86.1277231 222.069752,86.1277231 L267.034976,86.1679454 Z" id="Shape" fill="#FFFFFF" fill-rule="nonzero"></path>
        <path d="M321.061607,0.0243996296 C321.864323,-0.0872682999 322.672342,0.188368566 323.244316,0.768978994 C323.816289,1.34958942 324.086003,2.16796184 323.972897,2.97965286 L323.972897,15.6922506 C323.972897,17.755919 322.982663,18.7777354 321.061607,18.7777354 L308.049923,18.7777354 C306.019942,18.7777354 305,17.7759546 305,15.6922506 L305,2.97965286 C305,0.976091347 305.990235,0.0243996296 308.049923,0.0243996296 L321.061607,0.0243996296 Z M321.061607,27.2728362 C323.002467,27.2728362 323.972897,28.3046704 323.972897,30.3683387 L323.972897,98.0185931 C324.09032,98.8312134 323.822024,99.6522642 323.248976,100.233966 C322.675928,100.815667 321.865256,101.089878 321.061607,100.973846 L308.049923,100.973846 C307.246274,101.089878 306.435602,100.815667 305.862554,100.233966 C305.289506,99.6522642 305.02121,98.8312134 305.138633,98.0185931 L305.138633,30.3683387 C305.138633,28.3046704 306.109063,27.2728362 308.049923,27.2728362 L321.061607,27.2728362 Z" id="Shape" fill="#FFFFFF" fill-rule="nonzero"></path>
        <path d="M411.168893,27.012659 C416.245738,26.9180575 421.315363,27.4412407 426.267872,28.5708674 C429.884483,29.3567829 433.256358,31.0200209 436.091183,33.4163929 C438.594587,35.6981611 440.420875,38.635325 441.36685,41.901089 C442.516115,45.952274 443.057324,50.1540509 442.972488,54.3667563 L442.972488,98.0066446 C443.091514,98.8241164 442.820094,99.6501849 442.240514,100.234418 C441.660934,100.81865 440.841443,101.092248 440.030481,100.972267 L426.936056,100.972267 C426.125094,101.092248 425.305604,100.81865 424.726023,100.234418 C424.146443,99.6501849 423.875023,98.8241164 423.994049,98.0066446 L423.994049,58.9408519 C424.022793,56.58408 423.845924,54.229324 423.465485,51.9037817 C423.212824,50.2102829 422.494168,48.6221231 421.391121,47.3196331 C420.242007,46.1294177 418.783401,45.2897358 417.182555,44.8968703 C414.897562,44.3437931 412.55073,44.093708 410.201521,44.1529515 L374.688006,44.1529515 C372.302938,44.1028161 369.920978,44.3527176 367.59727,44.8968703 C365.917984,45.2900329 364.372588,46.1261804 363.119436,47.3196331 C361.932709,48.5984315 361.124385,50.1862712 360.785776,51.9037817 C360.302196,54.2168276 360.078061,56.577335 360.117591,58.9408519 L360.117591,98.0066446 C360.236617,98.8241164 359.965198,99.6501849 359.385617,100.234418 C358.806037,100.81865 357.986546,101.092248 357.175584,100.972267 L344.08116,100.972267 C342.026741,100.972267 341.009505,99.9669713 341.009505,98.0066446 L341.009505,54.3667563 C340.920135,50.1538033 341.461432,45.9513464 342.615142,41.901089 C343.561118,38.635325 345.387406,35.6981611 347.890809,33.4163929 C350.705368,31.0298411 354.052229,29.3671257 357.644311,28.5708674 C362.61915,27.4331411 367.712852,26.9098924 372.8131,27.012659 L411.168893,27.012659 Z" id="Path" fill="#FFFFFF" fill-rule="nonzero"></path>
        <path d="M476.053035,0.0258255745 C476.857399,-0.0893326983 477.668486,0.184743282 478.242926,0.765816239 C478.817366,1.3468892 479.088313,2.16734135 478.974469,2.98099369 L478.974469,15.6932253 C478.974469,17.7568343 477.984152,18.7786212 476.053035,18.7786212 L463.050176,18.7786212 C461.010123,18.7786212 460,17.7768693 460,15.6932253 L460,2.98099369 C460,0.977489882 460.990317,0.0258255745 463.050176,0.0258255745 L476.053035,0.0258255745 Z M476.053035,27.2734773 C478.033668,27.2734773 478.974469,28.2752292 478.974469,30.3688907 L478.974469,98.0171967 C479.088313,98.8308491 478.817366,99.6513012 478.242926,100.232374 C477.668486,100.813447 476.857399,101.087523 476.053035,100.972365 L463.050176,100.972365 C462.244884,101.091923 461.431124,100.81929 460.855597,100.237116 C460.280069,99.6549433 460.010548,98.8317868 460.128741,98.0171967 L460.128741,30.3688907 C460.128741,28.3052818 461.102553,27.2734773 463.050176,27.2734773 L476.053035,27.2734773 Z" id="Shape" fill="#67A8C1" fill-rule="nonzero"></path>
        <path d="M505.184424,27.600519 L505.184424,9.97622026 C505.061119,9.15558269 505.338973,8.32563469 505.931797,7.74381891 C506.524621,7.16200313 507.360729,6.89867415 508.180769,7.03551431 L521.394652,7.03551431 C522.205237,6.92005347 523.022906,7.19291464 523.6009,7.7717528 C524.178895,8.35059097 524.449507,9.16760009 524.33107,9.97622026 L524.33107,27.600519 L547.752502,27.600519 C548.420486,27.5080157 549.093033,27.7355793 549.566935,28.2144526 C550.040838,28.6933259 550.260505,29.3673352 550.159566,30.0328317 L550.159566,40.9981759 C550.250741,41.6608885 550.025178,42.3279116 549.550275,42.799937 C549.075373,43.2719623 548.406128,43.4943253 547.742514,43.4005831 L524.321082,43.4005831 L524.321082,74.3926333 C524.321082,78.1308188 525.080156,80.8621864 526.598305,82.6066729 C528.116453,84.3511595 531.10281,85.2084501 535.587341,85.2084501 L548.571503,85.2084501 C549.234454,85.1138588 549.903333,85.3363502 550.376876,85.8089771 C550.850419,86.2816039 551.073342,86.9491891 550.978567,87.6108573 L550.978567,98.5762015 C551.073342,99.2378697 550.850419,99.9054549 550.376876,100.378082 C549.903333,100.850709 549.234454,101.0732 548.571503,100.978609 L532.381251,100.978609 C527.920871,101.082809 523.466614,100.589967 519.137405,99.51324 C515.982903,98.719526 513.095151,97.1064767 510.767614,94.838016 C508.580136,92.5305718 507.076237,89.6631643 506.422913,86.5541969 C505.552347,82.5636633 505.146815,78.4860764 505.214387,74.4026018 L505.214387,43.3706776 L492.429981,43.3706776 C491.76703,43.4652689 491.098151,43.2427775 490.624608,42.7701506 C490.151065,42.2975238 489.928142,41.6299386 490.022917,40.9682704 L490.022917,30.0328317 C489.924627,29.3695782 490.145986,28.6989562 490.620013,28.2238824 C491.094041,27.7488087 491.765041,27.5251036 492.429981,27.6204559 L505.184424,27.600519 Z" id="Path" fill="#67A8C1" fill-rule="nonzero"></path>
    </g>
</svg>